<?xml version="1.0" encoding="UTF-8"?>
<svg width="27px" height="27px" viewBox="0 0 27 27" version="1.1" xmlns="http://www.w3.org/2000/svg" xmlns:xlink="http://www.w3.org/1999/xlink">
    <!-- Generator: Sketch 53.2 (72643) - https://sketchapp.com -->
    <title>Combined Shape</title>
    <desc>Created with Sketch.</desc>
    <g id="Page-1" stroke="none" stroke-width="1" fill="none" fill-rule="evenodd">
        <path d="M25.2132034,9.21320344 L17.2132034,9.21320344 L17.2132034,1.21320344 C17.2132034,0.108633936 16.3177729,-0.786796564 15.2132034,-0.786796564 L11.2132034,-0.786796564 C10.1086339,-0.786796564 9.21320344,0.108633936 9.21320344,1.21320344 L9.21320344,9.21320344 L1.21320344,9.21320344 C0.108633936,9.21320344 -0.786796564,10.1086339 -0.786796564,11.2132034 L-0.786796564,15.2132034 C-0.786796564,16.3177729 0.108633936,17.2132034 1.21320344,17.2132034 L9.21320344,17.2132034 L9.21320344,25.2132034 C9.21320344,26.3177729 10.1086339,27.2132034 11.2132034,27.2132034 L15.2132034,27.2132034 C16.3177729,27.2132034 17.2132034,26.3177729 17.2132034,25.2132034 L17.2132034,17.2132034 L25.2132034,17.2132034 C26.3177729,17.2132034 27.2132034,16.3177729 27.2132034,15.2132034 L27.2132034,11.2132034 C27.2132034,10.1086339 26.3177729,9.21320344 25.2132034,9.21320344 Z" id="Combined-Shape" stroke="#4A4A4A" stroke-width="2" fill="#D0021B" transform="translate(13.213203, 13.213203) rotate(45.000000) translate(-13.213203, -13.213203) "></path>
    </g>
</svg>